<?xml version="1.0" encoding="utf-8"?>
<!-- Generator: Adobe Illustrator 17.0.0, SVG Export Plug-In . SVG Version: 6.00 Build 0)  -->
<!DOCTYPE svg PUBLIC "-//W3C//DTD SVG 1.1//EN" "http://www.w3.org/Graphics/SVG/1.1/DTD/svg11.dtd">
<svg version="1.1" id="Layer_1" xmlns="http://www.w3.org/2000/svg" x="0px"
     y="0px"
     width="510px" height="510px" viewBox="0 0 510 510" enable-background="new 0 0 510 510" xml:space="preserve">
<g>
	<path fill="#EDE8E7" d="M265.722,139.201c-4.524-4.527-11.862-4.527-16.393,0c-4.527,4.524-4.527,11.866,0,16.393l87.797,87.799
		H103.851c-6.421,0-11.629,5.208-11.629,11.63c0,6.425,5.208,11.629,11.629,11.629h233.158l-87.797,87.799
		c-2.178,2.171-3.402,5.125-3.402,8.199c0,3.078,1.224,6.024,3.402,8.199c2.178,2.196,5.161,3.413,8.257,3.373
		c3.085-0.015,6.046-1.224,8.253-3.373l107.567-107.565c2.189-2.193,3.409-5.168,3.376-8.26c-0.022-3.085-1.231-6.035-3.376-8.253
		L265.722,139.201z"/>
    <path fill="#EDE8E7" d="M255.025,5.001C153.901,4.983,62.728,65.894,24.03,159.324c-38.69,93.433-17.289,200.972,54.239,272.457
		c97.624,97.625,255.896,97.625,353.516,0c97.62-97.618,97.62-255.893,0-353.518C385.009,31.221,321.363,4.84,255.025,5.001z
		 M255.025,481.788c-125.009,0-226.759-101.755-226.759-226.766S130.016,28.26,255.025,28.26s226.763,101.752,226.763,226.762
		S380.034,481.788,255.025,481.788z"/>
</g>
</svg>
